<svg width="1280" height="720" viewBox="0 0 1280 720" fill="none" xmlns="http://www.w3.org/2000/svg">
  <rect width="1280" height="720" rx="42" fill="#FBF3E8"/>
  <circle cx="154" cy="94" r="244" fill="#ECB860" fill-opacity="0.28"/>
  <circle cx="1126" cy="78" r="290" fill="#193D66" fill-opacity="0.16"/>
  <rect x="62" y="58" width="1156" height="604" rx="38" fill="#FFFBF4" fill-opacity="0.9" stroke="#17202B" stroke-opacity="0.12"/>
  <text x="104" y="128" fill="#193D66" font-family="Avenir Next, Arial" font-size="24" font-weight="800">Tencent RTC Chat, free forever</text>
  <text x="104" y="210" fill="#17202B" font-family="Georgia, serif" font-size="70" font-weight="700">Product chat, payments,</text>
  <text x="104" y="286" fill="#17202B" font-family="Georgia, serif" font-size="70" font-weight="700">and order threads together.</text>
  <text x="108" y="348" fill="#64707C" font-family="Avenir Next, Arial" font-size="24">Full-stack ecommerce flow with product chat, Stripe-ready checkout, and post-purchase support.</text>
  <rect x="104" y="414" width="266" height="82" rx="28" fill="#17202B"/>
  <text x="138" y="465" fill="#FFF9E8" font-family="Avenir Next, Arial" font-size="23" font-weight="800">Connect Chat SDK</text>
  <rect x="724" y="122" width="392" height="470" rx="34" fill="#FFF9EE" stroke="#17202B" stroke-opacity="0.12"/>
  <rect x="756" y="158" width="332" height="68" rx="22" fill="#D3E5FF" fill-opacity="0.58"/>
  <text x="780" y="200" fill="#17202B" font-family="Avenir Next, Arial" font-size="20" font-weight="800">Harbor Thread Market</text>
  <rect x="756" y="252" width="286" height="84" rx="22" fill="#FFF6E2"/>
  <text x="780" y="288" fill="#64707C" font-family="Avenir Next, Arial" font-size="18">Buyer asks seller before</text>
  <text x="780" y="314" fill="#64707C" font-family="Avenir Next, Arial" font-size="18">payment in the same thread.</text>
  <rect x="804" y="368" width="286" height="90" rx="22" fill="#1C8B83" fill-opacity="0.18"/>
  <text x="828" y="404" fill="#64707C" font-family="Avenir Next, Arial" font-size="18">Stripe payment or mock</text>
  <text x="828" y="430" fill="#64707C" font-family="Avenir Next, Arial" font-size="18">checkout continues into the order thread.</text>
  <rect x="756" y="498" width="246" height="48" rx="24" fill="#193D66" fill-opacity="0.12"/>
  <text x="780" y="529" fill="#193D66" font-family="Avenir Next, Arial" font-size="16" font-weight="800">Tencent RTC Chat SDK threads</text>
</svg>
