<svg width="1280" height="720" viewBox="0 0 1280 720" fill="none" xmlns="http://www.w3.org/2000/svg">
  <rect width="1280" height="720" rx="42" fill="#F5EFE4"/>
  <circle cx="156" cy="96" r="248" fill="#D7F08C" fill-opacity="0.52"/>
  <circle cx="1124" cy="78" r="286" fill="#173B63" fill-opacity="0.16"/>
  <rect x="62" y="58" width="1156" height="604" rx="38" fill="#FFFBF4" fill-opacity="0.9" stroke="#15212B" stroke-opacity="0.12"/>
  <text x="104" y="128" fill="#173B63" font-family="Avenir Next, Arial" font-size="24" font-weight="800">Tencent RTC Chat, free forever</text>
  <text x="104" y="210" fill="#15212B" font-family="Georgia, serif" font-size="70" font-weight="700">Creator communities with</text>
  <text x="104" y="286" fill="#15212B" font-family="Georgia, serif" font-size="70" font-weight="700">channels, DMs, and paid rooms.</text>
  <text x="108" y="348" fill="#64707B" font-family="Avenir Next, Arial" font-size="24">Full-stack community product with sign-up, moderation, and premium room continuity.</text>
  <rect x="104" y="414" width="266" height="82" rx="28" fill="#15212B"/>
  <text x="138" y="465" fill="#FFF9E8" font-family="Avenir Next, Arial" font-size="23" font-weight="800">Connect Chat SDK</text>
  <rect x="724" y="122" width="392" height="470" rx="34" fill="#FFF9EE" stroke="#15212B" stroke-opacity="0.12"/>
  <rect x="756" y="158" width="332" height="68" rx="22" fill="#D2E3FF" fill-opacity="0.58"/>
  <text x="780" y="200" fill="#15212B" font-family="Avenir Next, Arial" font-size="20" font-weight="800">Midnight Radio Club</text>
  <rect x="756" y="254" width="284" height="82" rx="22" fill="#FFF6E2"/>
  <text x="780" y="288" fill="#64707B" font-family="Avenir Next, Arial" font-size="18">Public lounge, creator DM,</text>
  <text x="780" y="314" fill="#64707B" font-family="Avenir Next, Arial" font-size="18">and moderation queue.</text>
  <rect x="804" y="366" width="284" height="90" rx="22" fill="#F0BE62" fill-opacity="0.26"/>
  <text x="828" y="402" fill="#64707B" font-family="Avenir Next, Arial" font-size="18">Upgrade to unlock premium</text>
  <text x="828" y="428" fill="#64707B" font-family="Avenir Next, Arial" font-size="18">rooms without losing history.</text>
  <rect x="756" y="496" width="242" height="48" rx="24" fill="#173B63" fill-opacity="0.12"/>
  <text x="780" y="527" fill="#173B63" font-family="Avenir Next, Arial" font-size="16" font-weight="800">Tencent RTC Chat SDK threads</text>
</svg>
